<mxfile host="app.diagrams.net" modified="2023-06-20T05:45:13.527Z" agent="Mozilla/5.0 (Windows NT 10.0; Win64; x64) AppleWebKit/537.36 (KHTML, like Gecko) Chrome/114.0.0.0 Safari/537.36" etag="dLqcBztFcLpbXBdayZCD" version="21.5.0" type="device">
  <diagram name="Halaman-1" id="DFiILBm5rPVtraX5rIZt">
    <mxGraphModel dx="989" dy="503" grid="1" gridSize="10" guides="1" tooltips="1" connect="1" arrows="1" fold="1" page="1" pageScale="1" pageWidth="827" pageHeight="1169" math="0" shadow="0">
      <root>
        <mxCell id="0" />
        <mxCell id="1" parent="0" />
        <mxCell id="UoeKQNjlJuLkmgNlma2o-1" value="Activity Diagram Membaca Artikel Kesehatan" style="swimlane;childLayout=stackLayout;resizeParent=1;resizeParentMax=0;startSize=20;html=1;" vertex="1" parent="1">
          <mxGeometry x="230" y="140" width="470" height="430" as="geometry" />
        </mxCell>
        <mxCell id="UoeKQNjlJuLkmgNlma2o-2" value="Member" style="swimlane;startSize=20;html=1;" vertex="1" parent="UoeKQNjlJuLkmgNlma2o-1">
          <mxGeometry y="20" width="270" height="410" as="geometry" />
        </mxCell>
        <mxCell id="UoeKQNjlJuLkmgNlma2o-9" value="" style="edgeStyle=orthogonalEdgeStyle;rounded=0;orthogonalLoop=1;jettySize=auto;html=1;" edge="1" parent="UoeKQNjlJuLkmgNlma2o-2" source="UoeKQNjlJuLkmgNlma2o-5" target="UoeKQNjlJuLkmgNlma2o-6">
          <mxGeometry relative="1" as="geometry" />
        </mxCell>
        <mxCell id="UoeKQNjlJuLkmgNlma2o-5" value="" style="ellipse;html=1;shape=endState;fillColor=#000000;strokeColor=#ff0000;" vertex="1" parent="UoeKQNjlJuLkmgNlma2o-2">
          <mxGeometry x="120" y="40" width="30" height="30" as="geometry" />
        </mxCell>
        <mxCell id="UoeKQNjlJuLkmgNlma2o-13" value="" style="edgeStyle=orthogonalEdgeStyle;rounded=0;orthogonalLoop=1;jettySize=auto;html=1;" edge="1" parent="UoeKQNjlJuLkmgNlma2o-2" source="UoeKQNjlJuLkmgNlma2o-6" target="UoeKQNjlJuLkmgNlma2o-10">
          <mxGeometry relative="1" as="geometry" />
        </mxCell>
        <mxCell id="UoeKQNjlJuLkmgNlma2o-6" value="Landing Page" style="rounded=1;whiteSpace=wrap;html=1;arcSize=40;fontColor=#000000;fillColor=default;strokeColor=default;" vertex="1" parent="UoeKQNjlJuLkmgNlma2o-2">
          <mxGeometry x="75" y="90" width="120" height="40" as="geometry" />
        </mxCell>
        <mxCell id="UoeKQNjlJuLkmgNlma2o-10" value="Memilih menu artikel" style="rounded=1;whiteSpace=wrap;html=1;arcSize=40;fontColor=#000000;fillColor=default;strokeColor=default;" vertex="1" parent="UoeKQNjlJuLkmgNlma2o-2">
          <mxGeometry x="75" y="150" width="120" height="40" as="geometry" />
        </mxCell>
        <mxCell id="UoeKQNjlJuLkmgNlma2o-14" value="Menekan card artikel" style="rounded=1;whiteSpace=wrap;html=1;arcSize=40;fontColor=#000000;fillColor=default;strokeColor=default;" vertex="1" parent="UoeKQNjlJuLkmgNlma2o-2">
          <mxGeometry x="142.5" y="260" width="95" height="40" as="geometry" />
        </mxCell>
        <mxCell id="UoeKQNjlJuLkmgNlma2o-18" value="Menekan kategori artikel" style="rounded=1;whiteSpace=wrap;html=1;arcSize=40;fontColor=#000000;fillColor=default;strokeColor=default;" vertex="1" parent="UoeKQNjlJuLkmgNlma2o-2">
          <mxGeometry x="32.5" y="260" width="100" height="40" as="geometry" />
        </mxCell>
        <mxCell id="UoeKQNjlJuLkmgNlma2o-3" value="Sistem" style="swimlane;startSize=20;html=1;" vertex="1" parent="UoeKQNjlJuLkmgNlma2o-1">
          <mxGeometry x="270" y="20" width="200" height="410" as="geometry" />
        </mxCell>
        <mxCell id="UoeKQNjlJuLkmgNlma2o-11" value="Menampilkan semua artikel" style="rounded=1;whiteSpace=wrap;html=1;arcSize=40;fontColor=#000000;fillColor=default;strokeColor=default;" vertex="1" parent="UoeKQNjlJuLkmgNlma2o-3">
          <mxGeometry x="40" y="150" width="120" height="40" as="geometry" />
        </mxCell>
        <mxCell id="UoeKQNjlJuLkmgNlma2o-32" style="edgeStyle=orthogonalEdgeStyle;rounded=0;orthogonalLoop=1;jettySize=auto;html=1;entryX=1;entryY=0.5;entryDx=0;entryDy=0;" edge="1" parent="UoeKQNjlJuLkmgNlma2o-3" source="UoeKQNjlJuLkmgNlma2o-15" target="UoeKQNjlJuLkmgNlma2o-31">
          <mxGeometry relative="1" as="geometry">
            <Array as="points">
              <mxPoint x="180" y="280" />
              <mxPoint x="180" y="365" />
            </Array>
          </mxGeometry>
        </mxCell>
        <mxCell id="UoeKQNjlJuLkmgNlma2o-15" value="Menampilkan isi artikel" style="rounded=1;whiteSpace=wrap;html=1;arcSize=40;fontColor=#000000;fillColor=default;strokeColor=default;" vertex="1" parent="UoeKQNjlJuLkmgNlma2o-3">
          <mxGeometry x="40" y="260" width="120" height="40" as="geometry" />
        </mxCell>
        <mxCell id="UoeKQNjlJuLkmgNlma2o-31" value="" style="ellipse;html=1;shape=endState;fillColor=#000000;strokeColor=#ff0000;" vertex="1" parent="UoeKQNjlJuLkmgNlma2o-3">
          <mxGeometry x="85" y="350" width="30" height="30" as="geometry" />
        </mxCell>
        <mxCell id="UoeKQNjlJuLkmgNlma2o-12" value="" style="edgeStyle=orthogonalEdgeStyle;rounded=0;orthogonalLoop=1;jettySize=auto;html=1;" edge="1" parent="UoeKQNjlJuLkmgNlma2o-1" source="UoeKQNjlJuLkmgNlma2o-10" target="UoeKQNjlJuLkmgNlma2o-11">
          <mxGeometry relative="1" as="geometry" />
        </mxCell>
        <mxCell id="UoeKQNjlJuLkmgNlma2o-16" value="" style="edgeStyle=orthogonalEdgeStyle;rounded=0;orthogonalLoop=1;jettySize=auto;html=1;" edge="1" parent="UoeKQNjlJuLkmgNlma2o-1" source="UoeKQNjlJuLkmgNlma2o-14" target="UoeKQNjlJuLkmgNlma2o-15">
          <mxGeometry relative="1" as="geometry" />
        </mxCell>
        <mxCell id="UoeKQNjlJuLkmgNlma2o-30" style="edgeStyle=orthogonalEdgeStyle;rounded=0;orthogonalLoop=1;jettySize=auto;html=1;entryX=0.532;entryY=1.064;entryDx=0;entryDy=0;entryPerimeter=0;" edge="1" parent="UoeKQNjlJuLkmgNlma2o-1" source="UoeKQNjlJuLkmgNlma2o-18" target="UoeKQNjlJuLkmgNlma2o-15">
          <mxGeometry relative="1" as="geometry">
            <Array as="points">
              <mxPoint x="82" y="350" />
              <mxPoint x="374" y="350" />
            </Array>
          </mxGeometry>
        </mxCell>
        <mxCell id="UoeKQNjlJuLkmgNlma2o-20" value="" style="endArrow=none;html=1;rounded=0;entryX=0.5;entryY=1;entryDx=0;entryDy=0;" edge="1" parent="1" target="UoeKQNjlJuLkmgNlma2o-11">
          <mxGeometry width="50" height="50" relative="1" as="geometry">
            <mxPoint x="600" y="370" as="sourcePoint" />
            <mxPoint x="300" y="250" as="targetPoint" />
          </mxGeometry>
        </mxCell>
        <mxCell id="UoeKQNjlJuLkmgNlma2o-21" value="" style="endArrow=none;html=1;rounded=0;" edge="1" parent="1">
          <mxGeometry width="50" height="50" relative="1" as="geometry">
            <mxPoint x="360" y="370" as="sourcePoint" />
            <mxPoint x="600" y="370" as="targetPoint" />
          </mxGeometry>
        </mxCell>
        <mxCell id="UoeKQNjlJuLkmgNlma2o-25" value="" style="endArrow=none;html=1;rounded=0;" edge="1" parent="1">
          <mxGeometry width="50" height="50" relative="1" as="geometry">
            <mxPoint x="360" y="390" as="sourcePoint" />
            <mxPoint x="360" y="370" as="targetPoint" />
          </mxGeometry>
        </mxCell>
        <mxCell id="UoeKQNjlJuLkmgNlma2o-26" value="" style="endArrow=none;html=1;rounded=0;" edge="1" parent="1">
          <mxGeometry width="50" height="50" relative="1" as="geometry">
            <mxPoint x="310" y="390" as="sourcePoint" />
            <mxPoint x="420" y="390" as="targetPoint" />
          </mxGeometry>
        </mxCell>
        <mxCell id="UoeKQNjlJuLkmgNlma2o-27" value="" style="endArrow=classic;html=1;rounded=0;" edge="1" parent="1" target="UoeKQNjlJuLkmgNlma2o-14">
          <mxGeometry width="50" height="50" relative="1" as="geometry">
            <mxPoint x="420" y="390" as="sourcePoint" />
            <mxPoint x="500" y="340" as="targetPoint" />
          </mxGeometry>
        </mxCell>
        <mxCell id="UoeKQNjlJuLkmgNlma2o-28" value="" style="endArrow=classic;html=1;rounded=0;entryX=0.47;entryY=-0.026;entryDx=0;entryDy=0;entryPerimeter=0;" edge="1" parent="1" target="UoeKQNjlJuLkmgNlma2o-18">
          <mxGeometry width="50" height="50" relative="1" as="geometry">
            <mxPoint x="310" y="390" as="sourcePoint" />
            <mxPoint x="500" y="340" as="targetPoint" />
          </mxGeometry>
        </mxCell>
      </root>
    </mxGraphModel>
  </diagram>
</mxfile>
